<?xml version="1.0" encoding="UTF-8" standalone="no"?>
<!-- Created with Inkscape (http://www.inkscape.org/) -->

<svg
   xmlns:dc="http://purl.org/dc/elements/1.1/"
   xmlns:cc="http://creativecommons.org/ns#"
   xmlns:rdf="http://www.w3.org/1999/02/22-rdf-syntax-ns#"
   xmlns:svg="http://www.w3.org/2000/svg"
   xmlns="http://www.w3.org/2000/svg"
   xmlns:sodipodi="http://sodipodi.sourceforge.net/DTD/sodipodi-0.dtd"
   xmlns:inkscape="http://www.inkscape.org/namespaces/inkscape"
   width="18.677999mm"
   height="13.383mm"
   viewBox="0 0 18.677999 13.383"
   version="1.1"
   id="svg8"
   inkscape:version="0.92.4 (f8dce91, 2019-08-02)"
   sodipodi:docname="backarrow.svg">
  <defs
     id="defs2" />
  <sodipodi:namedview
     id="base"
     pagecolor="#ffffff"
     bordercolor="#666666"
     borderopacity="1.0"
     inkscape:pageopacity="0.0"
     inkscape:pageshadow="2"
     inkscape:zoom="2.8"
     inkscape:cx="-18.490017"
     inkscape:cy="2.4943324"
     inkscape:document-units="mm"
     inkscape:current-layer="g973"
     showgrid="false"
     width="22.55mm"
     inkscape:window-width="1850"
     inkscape:window-height="1016"
     inkscape:window-x="70"
     inkscape:window-y="27"
     inkscape:window-maximized="1" />
  <metadata
     id="metadata5">
    <rdf:RDF>
      <cc:Work
         rdf:about="">
        <dc:format>image/svg+xml</dc:format>
        <dc:type
           rdf:resource="http://purl.org/dc/dcmitype/StillImage" />
        <dc:title></dc:title>
      </cc:Work>
    </rdf:RDF>
  </metadata>
  <g
     inkscape:label="Layer 1"
     inkscape:groupmode="layer"
     id="layer1"
     transform="translate(0,-283.617)">
    <g
       id="g973"
       transform="matrix(0.26458333,0,0,0.26458333,-403.63303,-8.0393227)">
      <g
         id="g955"
         data-name="Group"
         transform="translate(1510.8358,1077.6043)">
        <path
           id="path953"
           d="m 15.9,51.5 19.9,19.9 a 4.0305087,4.0305087 0 1 0 5.7,-5.7 l -13.1,-13 h 40.9 a 8,8 0 0 1 8,8 v 10.6 a 4,4 0 0 0 8,0 V 60.7 a 16,16 0 0 0 -16,-16 H 28.4 L 41.5,31.6 A 4.0305087,4.0305087 0 1 0 35.8,25.9 L 15.9,45.8 a 4,4 0 0 0 0,5.7 z"
           data-name="Path"
           inkscape:connector-curvature="0" />
      </g>
    </g>
  </g>
</svg>
