<?xml version="1.0" encoding="UTF-8" standalone="no"?>
<!-- Created with Inkscape (http://www.inkscape.org/) -->

<svg
   xmlns:dc="http://purl.org/dc/elements/1.1/"
   xmlns:cc="http://creativecommons.org/ns#"
   xmlns:rdf="http://www.w3.org/1999/02/22-rdf-syntax-ns#"
   xmlns:svg="http://www.w3.org/2000/svg"
   xmlns="http://www.w3.org/2000/svg"
   xmlns:sodipodi="http://sodipodi.sourceforge.net/DTD/sodipodi-0.dtd"
   xmlns:inkscape="http://www.inkscape.org/namespaces/inkscape"
   width="128mm"
   height="128mm"
   viewBox="0 0 128 128"
   version="1.1"
   id="svg8"
   inkscape:version="0.92.4 (f8dce91, 2019-08-02)"
   sodipodi:docname="drawing.svg">
  <defs
     id="defs2" />
  <sodipodi:namedview
     id="base"
     pagecolor="#ffffff"
     bordercolor="#666666"
     borderopacity="1.0"
     inkscape:pageopacity="0.0"
     inkscape:pageshadow="2"
     inkscape:zoom="0.7"
     inkscape:cx="149.35116"
     inkscape:cy="338.29746"
     inkscape:document-units="mm"
     inkscape:current-layer="layer1"
     showgrid="false"
     inkscape:window-width="1850"
     inkscape:window-height="1016"
     inkscape:window-x="70"
     inkscape:window-y="27"
     inkscape:window-maximized="1" />
  <metadata
     id="metadata5">
    <rdf:RDF>
      <cc:Work
         rdf:about="">
        <dc:format>image/svg+xml</dc:format>
        <dc:type
           rdf:resource="http://purl.org/dc/dcmitype/StillImage" />
        <dc:title></dc:title>
      </cc:Work>
    </rdf:RDF>
  </metadata>
  <g
     inkscape:label="Layer 1"
     inkscape:groupmode="layer"
     id="layer1"
     transform="translate(0,-169)">
    <g
       id="g3887"
       transform="matrix(2.0772863,0,0,2.0772863,-1.5427479,166.80825)"
       style="opacity:0.99999999;fill:#ffffff">
      <g
         id="g3849"
         style="fill:#ffffff">
        <path
           id="path3807"
           d="M 57.827,39 C 56.875,39 56.446,38.668 55.852,38.209 55.155,37.67 54.289,37 52.653,37 c -1.634,0 -2.5,0.67 -3.196,1.209 C 48.863,38.668 48.435,39 47.484,39 46.535,39 46.107,38.668 45.514,38.209 44.923,37.752 44.204,37.203 43,37.047 v -9.086 c 0,-0.915 -0.41,-1.769 -1.126,-2.343 L 38,22.52 V 20 c 1.103,0 2,-0.897 2,-2 v -2 c 0,-1.103 -0.897,-2 -2,-2 H 26 c -1.103,0 -2,0.897 -2,2 v 2 c 0,1.103 0.897,2 2,2 v 2.52 l -3.875,3.1 C 21.41,26.192 21,27.046 21,27.961 v 9.081 c -1.222,0.15 -1.947,0.706 -2.543,1.167 C 17.864,38.668 17.436,39 16.487,39 15.539,39 15.111,38.668 14.518,38.21 13.823,37.671 12.958,37 11.325,37 9.692,37 8.826,37.671 8.131,38.209 7.538,38.668 7.109,39 6.16,39 5.212,39 4.785,38.669 4.193,38.21 3.498,37.671 2.632,37 1,37 v 2 c 0.948,0 1.375,0.331 1.967,0.79 C 3.663,40.329 4.528,41 6.16,41 7.793,41 8.659,40.329 9.355,39.791 9.948,39.332 10.375,39 11.325,39 c 0.948,0 1.376,0.332 1.969,0.79 0.695,0.539 1.561,1.21 3.193,1.21 1.632,0 2.499,-0.671 3.194,-1.209 0.437,-0.338 0.787,-0.605 1.319,-0.723 V 52 c 0,2.206 1.794,4 4,4 h 14 c 2.206,0 4,-1.794 4,-4 V 39.078 c 0.514,0.122 0.861,0.382 1.289,0.713 0.696,0.538 1.562,1.209 3.195,1.209 1.634,0 2.501,-0.671 3.197,-1.209 C 51.274,39.332 51.703,39 52.653,39 c 0.952,0 1.381,0.332 1.975,0.791 0.697,0.539 1.564,1.209 3.199,1.209 1.635,0 2.502,-0.67 3.199,-1.209 C 61.619,39.332 62.048,39 63,39 v -2 c -1.635,0 -2.501,0.67 -3.198,1.209 C 59.208,38.668 58.779,39 57.827,39 Z M 26,16 h 12 l 10e-4,2 H 26 Z m 10,4 v 2 h -8 v -2 z m -8.649,4 h 9.299 l 2.5,2 H 36 v 2 h 5 v 9.177 c -0.833,0.234 -1.399,0.662 -1.877,1.032 C 38.53,38.668 38.101,39 37.151,39 36.201,39 35.773,38.668 35.18,38.209 34.483,37.671 33.618,37 31.984,37 c -1.633,0 -2.5,0.671 -3.195,1.209 C 28.196,38.668 27.767,39 26.817,39 c -0.95,0 -1.378,-0.332 -1.971,-0.791 -0.472,-0.365 -1.03,-0.787 -1.847,-1.023 V 28 h 11 V 26 H 24.85 Z M 39,54 H 25 c -1.103,0 -2,-0.897 -2,-2 V 39.358 c 0.206,0.124 0.405,0.265 0.622,0.433 0.696,0.538 1.562,1.209 3.195,1.209 1.634,0 2.5,-0.671 3.196,-1.209 C 30.606,39.332 31.034,39 31.984,39 c 0.95,0 1.378,0.332 1.971,0.791 0.696,0.538 1.562,1.209 3.196,1.209 1.634,0 2.5,-0.671 3.196,-1.209 C 40.574,39.615 40.782,39.467 41,39.34 V 52 c 0,1.103 -0.897,2 -2,2 z"
           inkscape:connector-curvature="0"
           style="fill:#ffffff" />
        <path
           id="path3809"
           d="m 12,45 c -1.654,0 -3,1.346 -3,3 0,1.654 1.346,3 3,3 1.654,0 3,-1.346 3,-3 0,-1.654 -1.346,-3 -3,-3 z m 0,4 c -0.551,0 -1,-0.448 -1,-1 0,-0.552 0.449,-1 1,-1 0.551,0 1,0.448 1,1 0,0.552 -0.449,1 -1,1 z"
           inkscape:connector-curvature="0"
           style="fill:#ffffff" />
        <rect
           id="rect3811"
           height="2"
           width="2"
           y="53"
           x="11"
           style="fill:#ffffff" />
        <rect
           id="rect3813"
           height="2"
           width="2"
           y="57"
           x="11"
           style="fill:#ffffff" />
        <rect
           id="rect3815"
           height="2"
           width="2"
           y="61"
           x="11"
           style="fill:#ffffff" />
        <path
           id="path3817"
           d="m 52,45 c -1.654,0 -3,1.346 -3,3 0,1.654 1.346,3 3,3 1.654,0 3,-1.346 3,-3 0,-1.654 -1.346,-3 -3,-3 z m 0,4 c -0.551,0 -1,-0.448 -1,-1 0,-0.552 0.449,-1 1,-1 0.551,0 1,0.448 1,1 0,0.552 -0.449,1 -1,1 z"
           inkscape:connector-curvature="0"
           style="fill:#ffffff" />
        <rect
           id="rect3819"
           height="2"
           width="2"
           y="53"
           x="51"
           style="fill:#ffffff" />
        <rect
           id="rect3821"
           height="2"
           width="2"
           y="57"
           x="51"
           style="fill:#ffffff" />
        <rect
           id="rect3823"
           height="2"
           width="2"
           y="61"
           x="51"
           style="fill:#ffffff" />
        <path
           id="path3825"
           d="M 8.707,9.879 C 7.622,10.964 7,12.466 7,14 c 0,1.534 0.622,3.036 1.707,4.121 l 1.586,1.586 1.414,-1.414 -1.586,-1.586 C 9.409,15.994 9,15.008 9,14 9,12.992 9.409,12.006 10.121,11.293 l 0.172,-0.172 C 11.378,10.036 12,8.534 12,7 12,5.466 11.378,3.964 10.293,2.879 L 8.707,1.293 7.293,2.707 8.879,4.293 C 9.591,5.006 10,5.992 10,7 10,8.008 9.591,8.994 8.879,9.707 Z"
           inkscape:connector-curvature="0"
           style="fill:#ffffff" />
        <path
           id="path3827"
           d="M 14.707,9.879 C 13.622,10.964 13,12.466 13,14 c 0,1.534 0.622,3.036 1.707,4.121 l 1.586,1.586 1.414,-1.414 -1.586,-1.586 C 15.409,15.994 15,15.008 15,14 c 0,-1.008 0.409,-1.994 1.121,-2.707 l 0.172,-0.172 C 17.378,10.036 18,8.534 18,7 18,5.466 17.378,3.964 16.293,2.879 L 14.707,1.293 13.293,2.707 14.879,4.293 C 15.591,5.006 16,5.992 16,7 16,8.008 15.591,8.994 14.879,9.707 Z"
           inkscape:connector-curvature="0"
           style="fill:#ffffff" />
        <path
           id="path3829"
           d="M 48.707,22.879 C 47.622,23.964 47,25.466 47,27 c 0,1.534 0.622,3.036 1.707,4.121 l 1.586,1.586 1.414,-1.414 -1.586,-1.586 C 49.409,28.994 49,28.008 49,27 c 0,-1.008 0.409,-1.994 1.121,-2.707 l 0.172,-0.172 C 51.378,23.036 52,21.534 52,20 52,18.466 51.378,16.964 50.293,15.879 l -1.586,-1.586 -1.414,1.414 1.586,1.586 C 49.591,18.006 50,18.992 50,20 c 0,1.008 -0.409,1.994 -1.121,2.707 z"
           inkscape:connector-curvature="0"
           style="fill:#ffffff" />
        <path
           id="path3831"
           d="m 56.293,32.707 1.414,-1.414 -1.586,-1.586 C 55.409,28.994 55,28.008 55,27 c 0,-1.008 0.409,-1.994 1.121,-2.707 l 0.172,-0.172 C 57.378,23.036 58,21.534 58,20 58,18.466 57.378,16.964 56.293,15.879 l -1.586,-1.586 -1.414,1.414 1.586,1.586 C 55.591,18.006 56,18.992 56,20 c 0,1.008 -0.409,1.994 -1.121,2.707 l -0.172,0.172 C 53.622,23.964 53,25.466 53,27 c 0,1.534 0.622,3.036 1.707,4.121 z"
           inkscape:connector-curvature="0"
           style="fill:#ffffff" />
        <polygon
           id="polygon3833"
           points="59,9 59,7 57,7 57,5 55,5 55,7 53,7 53,9 55,9 55,11 57,11 57,9 "
           style="fill:#ffffff" />
        <polygon
           id="polygon3835"
           points="7,29 7,27 5,27 5,25 3,25 3,27 1,27 1,29 3,29 3,31 5,31 5,29 "
           style="fill:#ffffff" />
        <polygon
           id="polygon3837"
           points="35,5 35,3 33,3 33,1 31,1 31,3 29,3 29,5 31,5 31,7 33,7 33,5 "
           style="fill:#ffffff" />
        <rect
           id="rect3839"
           height="2"
           width="2"
           y="30"
           x="11"
           style="fill:#ffffff" />
        <rect
           id="rect3841"
           height="2"
           width="2"
           y="9"
           x="4"
           style="fill:#ffffff" />
        <rect
           id="rect3843"
           height="2"
           width="2"
           y="5"
           x="49"
           style="fill:#ffffff" />
        <rect
           id="rect3845"
           height="2"
           width="2"
           y="7"
           x="25"
           style="fill:#ffffff" />
        <rect
           id="rect3847"
           height="2"
           width="2"
           y="26"
           x="61"
           style="fill:#ffffff" />
      </g>
    </g>
    <rect
       style="opacity:0;stroke-width:0.26458332"
       id="rect4702"
       width="166.77618"
       height="228.24818"
       x="18.708866"
       y="19.57423" />
    <rect
       style="opacity:0;stroke-width:0.26458332"
       id="rect4706"
       width="2.1381562"
       height="0.53453904"
       x="-281.70209"
       y="-15.170808" />
  </g>
</svg>
