<?xml version="1.0" encoding="UTF-8" standalone="no"?>
<!-- Created with Inkscape (http://www.inkscape.org/) -->

<svg
   xmlns:dc="http://purl.org/dc/elements/1.1/"
   xmlns:cc="http://creativecommons.org/ns#"
   xmlns:rdf="http://www.w3.org/1999/02/22-rdf-syntax-ns#"
   xmlns:svg="http://www.w3.org/2000/svg"
   xmlns="http://www.w3.org/2000/svg"
   xmlns:sodipodi="http://sodipodi.sourceforge.net/DTD/sodipodi-0.dtd"
   xmlns:inkscape="http://www.inkscape.org/namespaces/inkscape"
   width="19.333mm"
   height="23.051001mm"
   viewBox="0 0 19.333 23.051001"
   version="1.1"
   id="svg4928"
   inkscape:version="0.92.4 (f8dce91, 2019-08-02)"
   sodipodi:docname="offfood.svg">
  <defs
     id="defs4922" />
  <sodipodi:namedview
     id="base"
     pagecolor="#ffffff"
     bordercolor="#666666"
     borderopacity="1.0"
     inkscape:pageopacity="0.0"
     inkscape:pageshadow="2"
     inkscape:zoom="3.959798"
     inkscape:cx="-13.629625"
     inkscape:cy="34.720677"
     inkscape:document-units="mm"
     inkscape:current-layer="g5472"
     showgrid="false"
     inkscape:window-width="1850"
     inkscape:window-height="1016"
     inkscape:window-x="70"
     inkscape:window-y="27"
     inkscape:window-maximized="1" />
  <metadata
     id="metadata4925">
    <rdf:RDF>
      <cc:Work
         rdf:about="">
        <dc:format>image/svg+xml</dc:format>
        <dc:type
           rdf:resource="http://purl.org/dc/dcmitype/StillImage" />
        <dc:title></dc:title>
      </cc:Work>
    </rdf:RDF>
  </metadata>
  <g
     inkscape:label="Layer 1"
     inkscape:groupmode="layer"
     id="layer1"
     transform="translate(0,-273.949)">
    <g
       style="fill:#000000"
       id="g5490"
       transform="matrix(0.29398148,0,0,0.29398148,67.252029,161.68014)">
      <g
         id="g5472">
        <path
           id="path5458"
           d="m -181.2,418.8 c -0.2,0.3 -0.4,0.5 -0.6,0.6 l 0.7,3 18.1,-32.4 -1,-0.6 -16.7,27 c 0.2,0.6 0.1,1.6 -0.5,2.4 z"
           inkscape:connector-curvature="0"
           style="fill:#fefffe;fill-opacity:1" />
        <path
           id="path5460"
           d="m -182.1,423.4 -0.8,-3.4 c -0.1,0 -0.1,0 -0.2,0 l -4.3,6.7 c 0,0 1.3,2.3 1.9,3.4 l 3.5,-6.3 c 0,-0.1 -0.1,-0.2 -0.1,-0.4 z"
           inkscape:connector-curvature="0"
           style="fill:#fefffe;fill-opacity:1" />
        <path
           id="path5462"
           d="m -208,391.5 c -1.1,-3.8 -0.9,-7.4 -0.8,-7.5 0.1,-1.1 -0.7,-2 -1.8,-2.1 -1.1,-0.1 -2,0.7 -2.1,1.8 0,0.2 -0.4,4.4 1,9 1,3.2 7.8,15.6 12.9,24.5 l 2.5,-3.5 c -5,-8.8 -11,-19.7 -11.7,-22.2 z"
           inkscape:connector-curvature="0"
           style="fill:#58ff77;fill-opacity:1" />
        <path
           id="path5464"
           d="m -186,431.2 c -0.6,-1.1 -1.2,-2.1 -1.7,-3 -0.2,-0.3 -0.3,-0.6 -0.5,-0.8 l -2.4,2 c 0,0 -0.1,0 -0.1,0.1 -0.2,0.1 -0.4,0.2 -0.6,0.4 0.8,1.4 1.7,2.9 2.5,4.5 0.3,0.5 0.6,1.1 0.8,1.6 1.6,3.2 3,6.4 3.3,8.3 0.3,1.8 -0.6,5.1 -3,7.8 -1.1,1.2 -3.3,3.3 -6.3,3.3 0,0 -0.1,0 -0.1,0 -3.2,0 -5,-0.2 -6.5,-0.4 -1.7,-0.2 -3.1,-0.3 -5.6,-0.1 -1.8,0.1 -3.5,0.4 -5,0.6 -2.8,0.4 -5.1,0.7 -7.6,0.2 0.1,0 0.2,0 0.3,0 0.8,-0.1 1.6,-0.2 2.3,-0.4 1.4,-0.3 2.8,-0.9 4.1,-1.4 0.2,0 0.3,0 0.5,0 1.4,0.1 2.8,0.2 4.2,0.3 0.7,0 1.4,0 2.1,0.1 0.7,0 1.4,0 2.1,0 0.7,0 1.4,0 2.1,-0.1 0.7,0 1.4,-0.1 2.2,-0.2 0.4,-0.1 0.7,-0.1 1.1,-0.2 0.4,-0.1 0.8,-0.2 1.3,-0.4 0.2,-0.1 0.5,-0.3 0.8,-0.5 0.1,-0.1 0.3,-0.3 0.4,-0.5 0.1,-0.2 0.3,-0.5 0.3,-0.8 0,0 0,0 0,-0.1 v -0.1 -0.1 0 c 0,0 0,-0.1 0,-0.1 v -0.1 c 0,-0.1 0,-0.3 0,-0.4 0,-0.3 -0.1,-0.5 -0.2,-0.7 -0.2,-0.4 -0.5,-0.7 -0.7,-0.9 -0.2,-0.2 -0.5,-0.4 -0.7,-0.5 -0.2,-0.1 -0.4,-0.2 -0.6,-0.3 -0.4,-0.2 -0.8,-0.3 -1.2,-0.4 -0.8,-0.2 -1.6,-0.4 -2.3,-0.4 -1.5,-0.2 -3.1,-0.1 -4.6,0.1 -0.8,0.1 -1.5,0.3 -2.2,0.5 -0.4,0.1 -0.7,0.2 -1.1,0.3 l -0.3,0.1 -0.3,0.1 -0.1,0.1 -0.2,0.1 c -0.1,0 -0.2,0.1 -0.3,0.1 -0.4,0.2 -0.7,0.3 -1,0.5 l -0.9,0.5 c -0.6,0.3 -1.2,0.6 -1.8,0.9 -1.2,0.6 -2.4,1.1 -3.6,1.4 -1.2,0.4 -2.4,0.5 -3.5,0.4 -0.6,0 -1.1,-0.2 -1.6,-0.3 -0.1,0 -0.3,-0.1 -0.4,-0.1 v 0 0 0 h -0.1 v 0 c 0,0 0,0 0,0 v 0 c -0.1,0 -0.1,-0.1 -0.2,-0.1 -0.2,-0.1 -0.5,-0.3 -0.7,-0.4 -0.4,-0.3 -0.7,-0.7 -1,-1.1 0,-0.1 -0.1,-0.1 -0.1,-0.2 -0.2,-3.3 1.7,-7.7 5.3,-12.1 0.7,-0.8 0.6,-2.1 -0.3,-2.8 -0.8,-0.7 -2.1,-0.6 -2.8,0.3 -5.1,6.2 -7.3,12.4 -5.8,17.2 0.7,2.3 2.5,5.2 7.3,6.6 1.7,0.5 3.3,0.7 4.8,0.7 1.8,0 3.6,-0.3 5.5,-0.5 1.5,-0.2 3,-0.4 4.7,-0.6 2.2,-0.2 3.3,-0.1 5,0.1 1.5,0.1 3.4,0.3 6.8,0.4 3.4,0 6.8,-1.6 9.4,-4.7 2.8,-3.3 4.4,-7.7 3.9,-11 -0.5,-2.9 -2.5,-7.3 -4.6,-11.3 -0.1,-0.7 -0.3,-1.1 -0.5,-1.5 z"
           inkscape:connector-curvature="0"
           style="fill:#58ff77;fill-opacity:1" />
        <path
           id="path5466"
           d="m -184.2,416.7 c 0.6,-0.9 1.5,-1.3 2.2,-1.3 l 15.8,-25.1 -35.8,50.8 c 0,0 0,0 -0.1,0.1 l 0.1,0.1 c 0.2,0 0.5,0.1 0.9,0.1 1.2,0 2.8,-0.3 4,-1.5 1.1,-1.1 1.6,-2.8 1.6,-5.1 0,-0.1 -0.3,-3.9 4,-6.4 l 2.5,-2.2 4.3,-6.9 c -0.3,-0.6 -0.2,-1.7 0.5,-2.6 z"
           inkscape:connector-curvature="0"
           style="fill:#fefffe;fill-opacity:1" />
        <path
           id="path5468"
           d="m -188.9,420.6 23.5,-33.3 c 0.2,-0.3 0.1,-0.7 -0.2,-0.9 l -6.2,-4.4 c -0.1,-0.1 -0.2,-0.1 -0.4,-0.1 -0.3,0 -0.4,0.1 -0.5,0.3 l -23.4,33.1 z"
           inkscape:connector-curvature="0"
           style="fill:#fefffe;fill-opacity:1" />
        <path
           id="path5470"
           d="m -196.8,416.3 -13.4,19.1 c -0.2,0.3 -0.1,0.7 0.2,0.9 l 6.2,4.4 c 0.1,0.1 0.3,0.1 0.5,0.1 0.2,0 0.3,-0.1 0.4,-0.3 l 13.3,-18.9 z"
           inkscape:connector-curvature="0"
           style="fill:#fefffe;fill-opacity:1" />
      </g>
    </g>
  </g>
</svg>
