<?xml version="1.0" encoding="UTF-8" standalone="no"?>
<!-- Created with Inkscape (http://www.inkscape.org/) -->

<svg
   xmlns:dc="http://purl.org/dc/elements/1.1/"
   xmlns:cc="http://creativecommons.org/ns#"
   xmlns:rdf="http://www.w3.org/1999/02/22-rdf-syntax-ns#"
   xmlns:svg="http://www.w3.org/2000/svg"
   xmlns="http://www.w3.org/2000/svg"
   xmlns:sodipodi="http://sodipodi.sourceforge.net/DTD/sodipodi-0.dtd"
   xmlns:inkscape="http://www.inkscape.org/namespaces/inkscape"
   width="22.068001mm"
   height="22.343mm"
   viewBox="0 0 22.068 22.343"
   version="1.1"
   id="svg8"
   inkscape:version="0.92.4 (f8dce91, 2019-08-02)"
   sodipodi:docname="usericon.svg">
  <defs
     id="defs2" />
  <sodipodi:namedview
     id="base"
     pagecolor="#ffffff"
     bordercolor="#666666"
     borderopacity="1.0"
     inkscape:pageopacity="0.0"
     inkscape:pageshadow="2"
     inkscape:zoom="2.8"
     inkscape:cx="-18.490017"
     inkscape:cy="2.4943324"
     inkscape:document-units="mm"
     inkscape:current-layer="g1876"
     showgrid="false"
     width="22.55mm"
     inkscape:window-width="1850"
     inkscape:window-height="1016"
     inkscape:window-x="70"
     inkscape:window-y="27"
     inkscape:window-maximized="1" />
  <metadata
     id="metadata5">
    <rdf:RDF>
      <cc:Work
         rdf:about="">
        <dc:format>image/svg+xml</dc:format>
        <dc:type
           rdf:resource="http://purl.org/dc/dcmitype/StillImage" />
        <dc:title></dc:title>
      </cc:Work>
    </rdf:RDF>
  </metadata>
  <g
     inkscape:label="Layer 1"
     inkscape:groupmode="layer"
     id="layer1"
     transform="translate(0,-274.657)">
    <g
       id="g973"
       transform="matrix(0.26458333,0,0,0.26458333,-403.63303,-8.0393227)">
      <g
         id="g1876"
         transform="translate(1365.3695,1020.2568)">
        <g
           id="g1880"
           transform="translate(151.87549,40.425249)"
           style="fill:#58ff77;fill-opacity:1">
          <path
             inkscape:connector-curvature="0"
             d="m 49.99,56.836 c -6.552,0 -12.711,-2.552 -17.344,-7.185 -4.633,-4.633 -7.185,-10.792 -7.185,-17.344 0,-6.553 2.551,-12.712 7.185,-17.345 4.633,-4.633 10.792,-7.185 17.344,-7.185 6.552,0 12.712,2.552 17.345,7.185 9.563,9.563 9.563,25.125 0,34.688 -4.633,4.634 -10.793,7.186 -17.345,7.186 z m 0,-45.058 c -5.483,0 -10.639,2.136 -14.516,6.013 -3.877,3.878 -6.013,9.033 -6.013,14.517 0,5.482 2.135,10.638 6.013,14.516 3.877,3.877 9.033,6.013 14.516,6.013 5.483,0 10.639,-2.136 14.517,-6.013 8.004,-8.004 8.004,-21.027 0,-29.032 -3.878,-3.878 -9.033,-6.014 -14.517,-6.014 z"
             id="path1856"
             style="fill:#58ff77;fill-opacity:1" />
          <path
             inkscape:connector-curvature="0"
             d="m 89.703,92.222 c -0.006,0 -0.013,0 -0.02,0 H 10.297 c -1.104,0 -2,-0.896 -2,-2 0,-11.137 4.337,-21.607 12.212,-29.481 2.395,-2.396 5.175,-3.56 8.5,-3.56 3.445,0 7.026,1.287 10.489,2.532 3.479,1.25 7.077,2.543 10.493,2.543 3.415,0 7.014,-1.293 10.493,-2.543 3.463,-1.245 7.044,-2.532 10.489,-2.532 3.324,0 6.104,1.164 8.499,3.56 7.807,7.806 12.136,18.163 12.211,29.19 0.014,0.095 0.021,0.192 0.021,0.291 -10e-4,1.104 -0.895,2 -2.001,2 z m -77.354,-4 H 87.632 C 87.149,78.905 83.29,70.215 76.644,63.569 75.015,61.94 73.213,61.181 70.973,61.181 c -2.748,0 -5.852,1.115 -9.137,2.296 -3.802,1.366 -7.733,2.779 -11.846,2.779 -4.113,0 -8.044,-1.413 -11.846,-2.779 -3.285,-1.181 -6.388,-2.296 -9.136,-2.296 -2.24,0 -4.042,0.759 -5.671,2.388 -6.646,6.645 -10.505,15.335 -10.988,24.653 z"
             id="path1858"
             style="fill:#58ff77;fill-opacity:1" />
        </g>
      </g>
    </g>
  </g>
</svg>
